<svg width="34" height="34" viewBox="0 0 34 34" fill="none" xmlns="http://www.w3.org/2000/svg">
<path opacity="0.1" fill-rule="evenodd" clip-rule="evenodd" d="M0.244141 16.5285C0.244141 7.40006 7.6442 0 16.7726 0C25.9011 0 33.3011 7.40006 33.3011 16.5285C33.3011 25.6569 25.9011 33.057 16.7726 33.057C7.6442 33.057 0.244141 25.6569 0.244141 16.5285Z" fill="#797171"/>
<path d="M21.709 17.6875L22.2422 14.2489H18.9081V12.0176C18.9081 11.0768 19.3739 10.1599 20.8671 10.1599H22.3829V7.2323C22.3829 7.2323 21.0074 7 19.6922 7C16.9465 7 15.1517 8.64691 15.1517 11.6283V14.2489H12.0996V17.6875H15.1517V26H18.9081V17.6875H21.709Z" fill="white" fill-opacity="0.8"/>
</svg>
