<svg width="34" height="34" viewBox="0 0 34 34" fill="none" xmlns="http://www.w3.org/2000/svg">
<path opacity="0.1" fill-rule="evenodd" clip-rule="evenodd" d="M0.929688 16.5285C0.929688 7.40006 8.32975 0 17.4582 0C26.5866 0 33.9867 7.40006 33.9867 16.5285C33.9867 25.6569 26.5866 33.057 17.4582 33.057C8.32975 33.057 0.929688 25.6569 0.929688 16.5285Z" fill="#797171"/>
<g clip-path="url(#clip0_1655_9181)">
<path d="M17.932 12.9573C15.6606 12.9573 13.8285 14.7608 13.8285 16.9968C13.8285 19.2327 15.6606 21.0362 17.932 21.0362C20.2035 21.0362 22.0356 19.2327 22.0356 16.9968C22.0356 14.7608 20.2035 12.9573 17.932 12.9573ZM17.932 19.6229C16.4642 19.6229 15.2642 18.4452 15.2642 16.9968C15.2642 15.5483 16.4606 14.3706 17.932 14.3706C19.4035 14.3706 20.5999 15.5483 20.5999 16.9968C20.5999 18.4452 19.3999 19.6229 17.932 19.6229ZM23.1606 12.7921C23.1606 13.3159 22.732 13.7343 22.2035 13.7343C21.6713 13.7343 21.2463 13.3124 21.2463 12.7921C21.2463 12.2718 21.6749 11.8499 22.2035 11.8499C22.732 11.8499 23.1606 12.2718 23.1606 12.7921ZM25.8785 13.7483C25.8177 12.4862 25.5249 11.3683 24.5856 10.4472C23.6499 9.52607 22.5142 9.23779 21.232 9.17451C19.9106 9.10068 15.9499 9.10068 14.6285 9.17451C13.3499 9.23428 12.2142 9.52256 11.2749 10.4437C10.3356 11.3647 10.0463 12.4827 9.98203 13.7448C9.90703 15.0456 9.90703 18.9444 9.98203 20.2452C10.0427 21.5073 10.3356 22.6253 11.2749 23.5464C12.2142 24.4675 13.3463 24.7558 14.6285 24.819C15.9499 24.8929 19.9106 24.8929 21.232 24.819C22.5142 24.7593 23.6499 24.471 24.5856 23.5464C25.5213 22.6253 25.8142 21.5073 25.8785 20.2452C25.9535 18.9444 25.9535 15.0491 25.8785 13.7483ZM24.1713 21.6409C23.8927 22.33 23.3535 22.8608 22.6499 23.1386C21.5963 23.5499 19.0963 23.455 17.932 23.455C16.7677 23.455 14.2642 23.5464 13.2142 23.1386C12.5142 22.8644 11.9749 22.3335 11.6927 21.6409C11.2749 20.6038 11.3713 18.1429 11.3713 16.9968C11.3713 15.8507 11.2785 13.3862 11.6927 12.3526C11.9713 11.6636 12.5106 11.1327 13.2142 10.855C14.2677 10.4437 16.7677 10.5386 17.932 10.5386C19.0963 10.5386 21.5999 10.4472 22.6499 10.855C23.3499 11.1292 23.8892 11.6601 24.1713 12.3526C24.5892 13.3897 24.4927 15.8507 24.4927 16.9968C24.4927 18.1429 24.5892 20.6073 24.1713 21.6409Z" fill="white" fill-opacity="0.8"/>
</g>
<defs>
<clipPath id="clip0_1655_9181">
<rect width="16" height="18" fill="white" transform="translate(9.92969 8)"/>
</clipPath>
</defs>
</svg>
