<svg width="34" height="34" viewBox="0 0 34 34" fill="none" xmlns="http://www.w3.org/2000/svg">
<path opacity="0.1" fill-rule="evenodd" clip-rule="evenodd" d="M0.872559 16.5285C0.872559 7.40006 8.27262 0 17.4011 0C26.5295 0 33.9296 7.40006 33.9296 16.5285C33.9296 25.6569 26.5295 33.057 17.4011 33.057C8.27262 33.057 0.872559 25.6569 0.872559 16.5285Z" fill="#797171"/>
<g clip-path="url(#clip0_1655_9193)">
<path d="M12.8067 24.5016H9.16287V12.818H12.8067V24.5016ZM10.9828 11.2242C9.81765 11.2242 8.87256 10.2633 8.87256 9.10312C8.87256 8.54586 9.09489 8.01142 9.49064 7.61737C9.88639 7.22333 10.4231 7.00195 10.9828 7.00195C11.5425 7.00195 12.0793 7.22333 12.475 7.61737C12.8708 8.01142 13.0931 8.54586 13.0931 9.10312C13.0931 10.2633 12.1476 11.2242 10.9828 11.2242ZM26.4444 24.5016H22.8084V18.8141C22.8084 17.4586 22.7809 15.7203 20.9139 15.7203C19.0194 15.7203 18.7291 17.193 18.7291 18.7164V24.5016H15.0892V12.818H18.5839V14.4117H18.6349C19.1214 13.4938 20.3097 12.525 22.0826 12.525C25.7704 12.525 26.4483 14.943 26.4483 18.0836V24.5016H26.4444Z" fill="white" fill-opacity="0.8"/>
</g>
<defs>
<clipPath id="clip0_1655_9193">
<rect width="17.5758" height="20" fill="white" transform="translate(8.87256 7)"/>
</clipPath>
</defs>
</svg>
