<svg width="40" height="40" viewBox="0 0 40 40" fill="none" xmlns="http://www.w3.org/2000/svg">
<path d="M39.8943 14.36C39.7686 13.9898 39.5372 13.6645 39.2287 13.4243C38.9202 13.184 38.5481 13.0394 38.1583 13.0082L26.7562 12.1023L21.8222 1.18178C21.665 0.83005 21.4095 0.531308 21.0863 0.321608C20.7631 0.111908 20.3861 0.00021173 20.0008 3.00717e-07C19.6155 -0.000211129 19.2384 0.111071 18.915 0.320416C18.5916 0.529762 18.3357 0.828223 18.1782 1.17978L13.2441 12.1023L1.84206 13.0082C1.45897 13.0386 1.09273 13.1786 0.787167 13.4116C0.481599 13.6446 0.24964 13.9607 0.11904 14.3221C-0.0115608 14.6835 -0.0352721 15.0748 0.0507427 15.4493C0.136757 15.8238 0.328856 16.1656 0.604056 16.4338L9.03011 24.6467L6.05009 37.549C5.9596 37.9395 5.9886 38.3482 6.13333 38.7221C6.27805 39.096 6.53182 39.4177 6.8617 39.6456C7.19157 39.8734 7.58233 39.9969 7.98327 39.9999C8.3842 40.003 8.77679 39.8855 9.11011 39.6627L20.0002 32.4036L30.8902 39.6627C31.2309 39.8888 31.6327 40.0053 32.0415 39.9963C32.4503 39.9873 32.8466 39.8534 33.177 39.6125C33.5075 39.3717 33.7562 39.0354 33.8898 38.649C34.0234 38.2625 34.0354 37.8445 33.9243 37.451L30.2662 24.6527L39.3383 16.4897C39.9323 15.9538 40.1503 15.1179 39.8943 14.36Z" fill="#FCD400"/>
</svg>
