<svg width="75" height="75" viewBox="0 0 75 75" fill="none" xmlns="http://www.w3.org/2000/svg">
<circle cx="37.5" cy="37.5" r="37.5" fill="#22A336"/>
<g filter="url(#filter0_d_608_21951)">
<circle cx="37.4997" cy="37.4997" r="32.2962" stroke="white" stroke-opacity="0.7" stroke-width="0.985083"/>
</g>
<path d="M54.1652 29.2959C54.1652 30.317 53.7645 31.3028 53.036 32.007L36.0982 48.4148C35.3332 49.119 34.3133 49.5415 33.257 49.5415C32.2007 49.5415 31.1807 49.119 30.4522 48.4148L21.9651 40.2109C21.2366 39.5067 20.8359 38.5209 20.8359 37.4998C20.8359 36.4787 21.273 35.528 22.0015 34.7886C22.7665 34.0844 23.75 33.6971 24.8063 33.6619C25.8626 33.6619 26.8461 34.0492 27.6111 34.7534L33.257 40.2109L47.39 26.5495C48.155 25.8453 49.1385 25.458 50.1948 25.458C51.2511 25.4932 52.2346 25.8805 52.9996 26.6199C53.7281 27.3241 54.1652 28.2748 54.1652 29.2959Z" fill="white"/>
<defs>
<filter id="filter0_d_608_21951" x="2.74077" y="4.2184" width="69.5175" height="69.518" filterUnits="userSpaceOnUse" color-interpolation-filters="sRGB">
<feFlood flood-opacity="0" result="BackgroundImageFix"/>
<feColorMatrix in="SourceAlpha" type="matrix" values="0 0 0 0 0 0 0 0 0 0 0 0 0 0 0 0 0 0 127 0" result="hardAlpha"/>
<feOffset dy="1.47762"/>
<feGaussianBlur stdDeviation="0.985083"/>
<feColorMatrix type="matrix" values="0 0 0 0 0 0 0 0 0 0 0 0 0 0 0 0 0 0 0.12 0"/>
<feBlend mode="normal" in2="BackgroundImageFix" result="effect1_dropShadow_608_21951"/>
<feBlend mode="normal" in="SourceGraphic" in2="effect1_dropShadow_608_21951" result="shape"/>
</filter>
</defs>
</svg>
