<svg width="34" height="34" viewBox="0 0 34 34" fill="none" xmlns="http://www.w3.org/2000/svg">
<path opacity="0.1" fill-rule="evenodd" clip-rule="evenodd" d="M0.558594 16.5285C0.558594 7.40006 7.95866 0 17.0871 0C26.2155 0 33.6156 7.40006 33.6156 16.5285C33.6156 25.6569 26.2155 33.057 17.0871 33.057C7.95866 33.057 0.558594 25.6569 0.558594 16.5285Z" fill="#797171"/>
<g clip-path="url(#clip0_1655_9189)">
<path d="M24.7084 12.5184C24.7198 12.6728 24.7198 12.8272 24.7198 12.9816C24.7198 17.6912 21.0079 23.1176 14.2236 23.1176C12.1335 23.1176 10.1919 22.5331 8.55859 21.5184C8.85556 21.5515 9.14106 21.5625 9.44946 21.5625C11.1741 21.5625 12.7616 21 14.0294 20.0405C12.4076 20.0074 11.0484 18.9816 10.5802 17.5699C10.8086 17.6029 11.037 17.625 11.2769 17.625C11.6081 17.625 11.9393 17.5809 12.2477 17.5037C10.5573 17.1728 9.28953 15.739 9.28953 14.0073V13.9632C9.78063 14.228 10.3517 14.3934 10.957 14.4154C9.96337 13.7757 9.31238 12.6838 9.31238 11.4485C9.31238 10.7868 9.49509 10.1801 9.81491 9.65072C11.6309 11.8125 14.3606 13.2242 17.4215 13.3787C17.3644 13.114 17.3301 12.8382 17.3301 12.5625C17.3301 10.5992 18.9748 9 21.0192 9C22.0814 9 23.0408 9.43015 23.7147 10.125C24.5484 9.9706 25.3479 9.67279 26.0561 9.26471C25.7819 10.0919 25.1994 10.7868 24.4342 11.2279C25.1766 11.1508 25.8962 10.9522 26.5586 10.6765C26.0561 11.3823 25.4279 12.011 24.7084 12.5184Z" fill="white" fill-opacity="0.8"/>
</g>
<defs>
<clipPath id="clip0_1655_9189">
<rect width="18" height="15" fill="white" transform="translate(8.55859 9)"/>
</clipPath>
</defs>
</svg>
