<svg width="30" height="30" viewBox="0 0 30 30" fill="none" xmlns="http://www.w3.org/2000/svg">
<circle cx="15" cy="15" r="15" fill="#8C9099"/>
<g clip-path="url(#clip0_608_3513)">
<path d="M15.0005 17.1329C16.1787 17.1329 17.1339 16.1778 17.1339 14.9995C17.1339 13.8213 16.1787 12.8662 15.0005 12.8662C13.8223 12.8662 12.8672 13.8213 12.8672 14.9995C12.8672 16.1778 13.8223 17.1329 15.0005 17.1329Z" fill="white"/>
<path d="M13.0007 8.33301L11.7807 9.66634H9.66732C8.93398 9.66634 8.33398 10.2663 8.33398 10.9997V18.9997C8.33398 19.733 8.93398 20.333 9.66732 20.333H20.334C21.0673 20.333 21.6673 19.733 21.6673 18.9997V10.9997C21.6673 10.2663 21.0673 9.66634 20.334 9.66634H18.2207L17.0007 8.33301H13.0007ZM15.0007 18.333C13.1607 18.333 11.6673 16.8397 11.6673 14.9997C11.6673 13.1597 13.1607 11.6663 15.0007 11.6663C16.8407 11.6663 18.334 13.1597 18.334 14.9997C18.334 16.8397 16.8407 18.333 15.0007 18.333Z" fill="white"/>
</g>
<defs>
<clipPath id="clip0_608_3513">
<rect width="16" height="16" fill="white" transform="translate(7 7)"/>
</clipPath>
</defs>
</svg>
